# xmcd
#
# Track frame offsets:
#	150
#	22407
#	40891
#	58599
#	76358
#	96558
#	114736
#	131974
#	152019
#	177569
#	198018
#	213608
#	229903
#	241308
#	253506
#	266490
#	284934
#	297099
#	309172
#
# Disc length: 4377
#
# Revision: 3
# Processed by: cddbd v1.5.1PL0 Copyright (c) Steve Scherf et al.
# Submitted via: EasyCDDAExtractor 8.0.2.1
# Normalized: r2:DSETVAR1
#
DISCID=26111713
DTITLE=Various Artist - BLACK VELVET CD 4
DYEAR=2005
DGENRE=Blues
TTITLE0=Luniz - Just Me and U
TTITLE1=Des'Ree - You Gotta Be
TTITLE2=Destiny's Child - Emotion
TTITLE3=George Benson - Lady Love Me(One More Times)
TTITLE4=Mica Paris - One
TTITLE5=Melisa Morgan - Do Me Baby
TTITLE6=Pilly Ocean - Suddenly
TTITLE7=Toni Braxton - Un Break My Heart
TTITLE8=Isley Brothers - Between The Sheets
TTITLE9=Terence Trent Darby - Sign Your Name
TTITLE10=Gil Scott Heron - Did You Hear What They Said?
TTITLE11=Lou Rawls - At Last
TTITLE12=Otis Redding - These Arms Of Mine
TTITLE13=Aretha Fraklin - (You Make Me Feel Like) A Natural Woman
TTITLE14=Bettye Swan - Tell It Like This
TTITLE15=Randy Crawford - Almaz
TTITLE16=Sam Cooke And Lou Rawls - Bring It On Home To Me
TTITLE17=The Drifters - Under The Boardwalk
TTITLE18=Roberta Flack-The First Time Ever I Saw Your Face
EXTD=
EXTT0=
EXTT1=
EXTT2=
EXTT3=
EXTT4=
EXTT5=
EXTT6=
EXTT7=
EXTT8=
EXTT9=
EXTT10=
EXTT11=
EXTT12=
EXTT13=
EXTT14=
EXTT15=
EXTT16=
EXTT17=
EXTT18=
PLAYORDER=
